<?xml version="1.0" encoding="utf-8"?>
<!-- Generator: Adobe Illustrator 24.3.0, SVG Export Plug-In . SVG Version: 6.00 Build 0)  -->
<svg version="1.1" id="Capa_1" xmlns="http://www.w3.org/2000/svg" xmlns:xlink="http://www.w3.org/1999/xlink" x="0px" y="0px"
	 viewBox="0 0 342 60" style="enable-background:new 0 0 342 60;" xml:space="preserve">
<style type="text/css">
	.st0{fill:#D9263C;}
	.st1{fill:#FFFFFF;}
</style>
<g>
	<g>
		<path class="st0" d="M83.491,0H57.538l0,0c-3.641,0-6.592,2.951-6.592,6.592l0,0v13.404l0,0c0,3.174,2.573,5.746,5.746,5.746
			h0.845H71.45v4.653l6.144-4.653h0.252v-0.191l3.542-2.683l-3.542-2.683v-0.19h-0.251l-6.145-4.654v4.654H58.984
			c-0.798,0-1.445-0.647-1.445-1.445V8.037c0-0.798,0.647-1.445,1.445-1.445h23.062c0.798,0,1.445,0.647,1.445,1.445v3.665h6.592
			v-5.11l0,0C90.083,2.951,87.131,0,83.491,0L83.491,0z"/>
		<path class="st1" d="M39.462,26.165c3.192,0,5.78-2.588,5.78-5.78V16.7c0-3.192-2.588-5.78-5.78-5.78H8.779
			c-1.195,0-2.163-0.969-2.163-2.163s0.968-2.163,2.163-2.163h33.167c1.82,0,3.296-1.476,3.296-3.296S43.766,0,41.946,0H5.205
			C2.81,0,0.869,1.941,0.869,4.335v8.021c0,1.596,1.294,2.89,2.89,2.89h33.572c1.195,0,2.164,0.969,2.164,2.163
			c0,1.195-0.969,2.163-2.164,2.163H4.165c-1.82,0-3.296,1.476-3.296,3.296s1.476,3.296,3.296,3.296h35.297V26.165z"/>
		<path class="st1" d="M244.321,26.165h35.296c1.82,0,3.296-1.476,3.296-3.296s-1.476-3.296-3.296-3.296h-27.994
			c-3.585,0-6.49-2.906-6.49-6.49l0,0c0-3.585,2.906-6.49,6.49-6.49h27.994c1.82,0,3.296-1.476,3.296-3.296S281.438,0,279.617,0
			h-35.296c-3.192,0-5.78,2.588-5.78,5.78v14.604C238.541,23.577,241.129,26.165,244.321,26.165z"/>
		<path class="st1" d="M149.504,6.592h36.397c1.82,0,3.296-1.476,3.296-3.296S187.721,0,185.901,0h-36.397
			c-1.82,0-3.296,1.476-3.296,3.296S147.684,6.592,149.504,6.592z"/>
		<path class="st1" d="M150.543,26.165h35.358c1.82,0,3.296-1.476,3.296-3.296s-1.476-3.296-3.296-3.296h-29.812
			c-1.195,0-2.163-0.969-2.163-2.163c0-1.195,0.969-2.163,2.163-2.163h30.945c1.195,0,2.163-0.969,2.163-2.163
			s-0.969-2.163-2.163-2.163h-37.935c-1.596,0-2.89,1.294-2.89,2.89v8.021C146.208,24.224,148.149,26.165,150.543,26.165z"/>
		<path class="st1" d="M195.623,6.592h36.397c1.82,0,3.296-1.476,3.296-3.296S233.84,0,232.02,0h-36.397
			c-1.82,0-3.296,1.476-3.296,3.296S193.802,6.592,195.623,6.592z"/>
		<path class="st1" d="M196.662,26.165h35.358c1.82,0,3.296-1.476,3.296-3.296s-1.476-3.296-3.296-3.296h-29.812
			c-1.195,0-2.163-0.969-2.163-2.163c0-1.195,0.969-2.163,2.163-2.163h30.945c1.195,0,2.163-0.969,2.163-2.163
			s-0.968-2.163-2.163-2.163h-37.935c-1.596,0-2.89,1.294-2.89,2.89v8.021C192.327,24.224,194.268,26.165,196.662,26.165z"/>
		<path class="st1" d="M317.149,31.66V18.93c0-3.055,0.283-6.74-1.477-9.4c-1.471-2.225-4.53-4.158-6.874-5.305
			c-2.678-1.31-5.682-2.321-8.693-2.316c-3.183,0.005-5.757,2.597-5.757,5.78V31.66H2.453v5.747h291.894h8.117v-23.7
			c0-1.808,1.415-3.359,3.222-3.392c1.842-0.034,3.345,1.449,3.345,3.283V31.66v5.747V50.17c0,2.242,1.817,4.059,4.058,4.059l0,0
			c2.241,0,4.058-1.817,4.058-4.059V37.406h23.982V31.66H317.149z"/>
		<path class="st1" d="M100.834,25.181c2.669,0,4.833-2.164,4.833-4.833v-7.944l8.8,9.009l3.054,3.125
			c0.89,0.912,2.334,0.912,3.225,0l3.054-3.125l8.801-9.009v7.944c0,2.669,2.164,4.833,4.833,4.833c2.669,0,4.833-2.164,4.833-4.833
			V4.833c0-2.669-2.164-4.833-4.833-4.833c-1.084,0-2.081,0.361-2.887,0.964c-0.159,0.097-0.311,0.213-0.448,0.354l-13.352,13.668
			c-0.891,0.912-2.335,0.912-3.225,0L104.168,1.317c-0.137-0.14-0.288-0.256-0.448-0.354C102.914,0.361,101.917,0,100.834,0
			C98.164,0,96,2.164,96,4.833v15.515C96,23.017,98.164,25.181,100.834,25.181z"/>
	</g>
	<g>
		<path class="st1" d="M6.972,54.022c-0.181-0.205-0.409-0.388-0.682-0.55c-0.273-0.162-0.592-0.311-0.955-0.448
			c-0.198-0.079-0.377-0.158-0.537-0.237c-0.16-0.079-0.297-0.164-0.41-0.253c-0.113-0.09-0.201-0.189-0.262-0.297
			s-0.092-0.232-0.092-0.372c0-0.191,0.034-0.36,0.102-0.51c0.068-0.149,0.174-0.268,0.318-0.356
			c0.144-0.088,0.327-0.132,0.55-0.132c0.237,0,0.432,0.053,0.583,0.159s0.262,0.25,0.332,0.432c0.07,0.182,0.105,0.393,0.105,0.634
			h1.441c0-0.457-0.099-0.867-0.297-1.23s-0.478-0.651-0.842-0.863c-0.363-0.212-0.798-0.318-1.306-0.318
			c-0.363,0-0.692,0.052-0.987,0.157s-0.551,0.253-0.769,0.445s-0.384,0.423-0.499,0.691c-0.115,0.268-0.173,0.566-0.173,0.893
			c0,0.331,0.06,0.619,0.181,0.863s0.287,0.459,0.499,0.642c0.212,0.183,0.453,0.345,0.723,0.486s0.556,0.272,0.858,0.394
			c0.255,0.104,0.464,0.206,0.626,0.305c0.162,0.099,0.286,0.199,0.372,0.299c0.086,0.101,0.145,0.211,0.175,0.332
			c0.03,0.121,0.046,0.256,0.046,0.407c0,0.187-0.033,0.354-0.1,0.502s-0.169,0.262-0.308,0.345s-0.323,0.124-0.553,0.124
			c-0.187,0-0.356-0.025-0.507-0.076c-0.151-0.05-0.281-0.128-0.388-0.235c-0.108-0.106-0.188-0.246-0.24-0.418
			c-0.052-0.172-0.078-0.379-0.078-0.62H2.453c0,0.428,0.07,0.802,0.21,1.122c0.14,0.32,0.333,0.585,0.577,0.793
			c0.244,0.209,0.526,0.364,0.844,0.467c0.318,0.102,0.652,0.154,1.001,0.154c0.371,0,0.706-0.051,1.006-0.154
			s0.557-0.249,0.769-0.44c0.212-0.191,0.374-0.419,0.486-0.685c0.111-0.266,0.167-0.563,0.167-0.89
			c0-0.324-0.045-0.613-0.135-0.869C7.289,54.457,7.153,54.227,6.972,54.022z"/>
		<path class="st1" d="M12.33,52.42c-0.205-0.237-0.45-0.417-0.736-0.539s-0.607-0.183-0.963-0.183c-0.349,0-0.666,0.061-0.95,0.183
			c-0.284,0.122-0.529,0.302-0.736,0.539S8.58,52.95,8.47,53.299s-0.165,0.754-0.165,1.214v0.426c0,0.457,0.055,0.861,0.165,1.211
			c0.11,0.351,0.268,0.645,0.475,0.882c0.207,0.237,0.454,0.416,0.742,0.537s0.606,0.181,0.955,0.181s0.666-0.06,0.952-0.181
			c0.286-0.121,0.531-0.299,0.736-0.537c0.205-0.237,0.363-0.531,0.475-0.882c0.111-0.351,0.167-0.754,0.167-1.211v-0.426
			c0-0.46-0.056-0.865-0.167-1.214S12.536,52.657,12.33,52.42z M11.591,54.939c0,0.284-0.02,0.53-0.059,0.736
			c-0.04,0.207-0.099,0.38-0.178,0.518c-0.079,0.139-0.179,0.24-0.299,0.305c-0.121,0.065-0.258,0.097-0.413,0.097
			c-0.148,0-0.28-0.032-0.397-0.097c-0.117-0.065-0.217-0.166-0.299-0.305c-0.083-0.138-0.146-0.311-0.191-0.518
			s-0.067-0.452-0.067-0.736v-0.426c0-0.281,0.022-0.524,0.067-0.731s0.109-0.378,0.191-0.515c0.083-0.137,0.182-0.24,0.297-0.31
			s0.244-0.105,0.388-0.105c0.147,0,0.281,0.035,0.399,0.105c0.119,0.07,0.22,0.174,0.302,0.31c0.083,0.137,0.146,0.308,0.191,0.515
			s0.067,0.45,0.067,0.731v0.426H11.591z"/>
		<path class="st1" d="M15.172,53.796c0.022-0.202,0.063-0.372,0.124-0.513c0.061-0.14,0.15-0.247,0.267-0.321
			c0.117-0.074,0.269-0.111,0.456-0.111c0.176,0,0.32,0.042,0.432,0.127c0.111,0.084,0.196,0.207,0.253,0.367
			c0.058,0.16,0.09,0.359,0.097,0.596h1.295c-0.004-0.486-0.091-0.895-0.262-1.227c-0.171-0.333-0.409-0.585-0.715-0.758
			s-0.664-0.259-1.074-0.259c-0.388,0-0.728,0.062-1.017,0.186c-0.29,0.124-0.528,0.307-0.715,0.548s-0.327,0.533-0.421,0.877
			c-0.094,0.343-0.14,0.735-0.14,1.173v0.48c0,0.442,0.047,0.835,0.14,1.179c0.093,0.343,0.234,0.636,0.421,0.877
			c0.187,0.241,0.425,0.423,0.715,0.548c0.289,0.124,0.63,0.186,1.022,0.186c0.381,0,0.725-0.084,1.03-0.253
			c0.306-0.169,0.55-0.41,0.734-0.723c0.183-0.313,0.277-0.683,0.281-1.111H16.8c-0.007,0.219-0.043,0.399-0.108,0.539
			c-0.065,0.14-0.154,0.241-0.267,0.302c-0.113,0.061-0.246,0.092-0.397,0.092c-0.194,0-0.351-0.035-0.469-0.105
			c-0.119-0.07-0.208-0.175-0.267-0.316c-0.059-0.14-0.1-0.31-0.121-0.51c-0.021-0.2-0.032-0.434-0.032-0.704v-0.48
			C15.14,54.225,15.151,53.997,15.172,53.796z"/>
		<path class="st1" d="M19.735,49.528c-0.237,0-0.424,0.071-0.561,0.213c-0.137,0.142-0.205,0.323-0.205,0.542
			c0,0.212,0.068,0.391,0.205,0.537s0.324,0.219,0.561,0.219c0.237,0,0.423-0.073,0.556-0.219s0.2-0.325,0.2-0.537
			c0-0.219-0.067-0.4-0.2-0.542C20.158,49.599,19.973,49.528,19.735,49.528z"/>
		<rect x="19.039" y="51.805" class="st1" width="1.387" height="5.838"/>
		<path class="st1" d="M25.431,52.414c-0.18-0.237-0.407-0.416-0.682-0.537s-0.596-0.181-0.963-0.181
			c-0.342,0-0.654,0.058-0.936,0.175c-0.282,0.117-0.523,0.294-0.723,0.531c-0.2,0.237-0.355,0.535-0.467,0.893
			c-0.111,0.358-0.167,0.778-0.167,1.26v0.523c0,0.428,0.055,0.807,0.165,1.138s0.269,0.61,0.477,0.836
			c0.209,0.227,0.463,0.399,0.763,0.518c0.3,0.119,0.645,0.178,1.033,0.178c0.338,0,0.633-0.043,0.885-0.129
			c0.252-0.086,0.467-0.197,0.647-0.332c0.18-0.135,0.322-0.272,0.426-0.413l-0.577-0.847c-0.155,0.176-0.338,0.315-0.55,0.415
			c-0.212,0.101-0.459,0.151-0.739,0.151c-0.187,0-0.351-0.027-0.491-0.081s-0.259-0.141-0.356-0.262
			c-0.097-0.121-0.17-0.277-0.219-0.469c-0.042-0.168-0.063-0.374-0.068-0.607h3.076V54.51c0-0.46-0.044-0.866-0.132-1.217
			C25.745,52.946,25.611,52.652,25.431,52.414z M24.606,54.168h-1.71c0.009-0.149,0.022-0.285,0.041-0.405
			c0.034-0.216,0.087-0.39,0.159-0.523s0.165-0.231,0.278-0.294c0.113-0.063,0.249-0.095,0.408-0.095
			c0.201,0,0.361,0.046,0.48,0.138s0.204,0.226,0.256,0.402s0.082,0.39,0.089,0.642v0.135H24.606z"/>
		<path class="st1" d="M29.735,52.31c-0.127-0.172-0.271-0.31-0.434-0.414c-0.211-0.133-0.458-0.2-0.742-0.2
			c-0.302,0-0.571,0.058-0.806,0.172c-0.236,0.115-0.437,0.29-0.604,0.524c-0.167,0.234-0.292,0.528-0.375,0.882
			s-0.124,0.771-0.124,1.249v0.426c0,0.457,0.041,0.86,0.124,1.209s0.207,0.641,0.372,0.877c0.165,0.236,0.366,0.414,0.601,0.534
			c0.236,0.121,0.503,0.181,0.801,0.181c0.284,0,0.531-0.067,0.742-0.2c0.196-0.124,0.366-0.299,0.511-0.521l0.064,0.618
			l1.257-0.005v-8.287h-1.386L29.735,52.31L29.735,52.31z M29.473,56.412c-0.135,0.108-0.31,0.162-0.526,0.162
			c-0.169,0-0.311-0.031-0.426-0.094c-0.115-0.063-0.209-0.161-0.281-0.294s-0.124-0.302-0.157-0.507
			c-0.032-0.205-0.049-0.448-0.049-0.728v-0.426c0-0.288,0.017-0.536,0.051-0.745s0.086-0.381,0.156-0.518s0.164-0.237,0.281-0.302
			s0.26-0.097,0.429-0.097c0.155,0,0.289,0.033,0.404,0.1c0.115,0.067,0.212,0.158,0.292,0.275c0.032,0.047,0.06,0.101,0.086,0.155
			v2.668C29.667,56.202,29.584,56.324,29.473,56.412z"/>
		<path class="st1" d="M36.305,56.256v-2.66c0-0.453-0.086-0.819-0.256-1.098c-0.171-0.279-0.406-0.482-0.704-0.61
			c-0.299-0.128-0.637-0.191-1.014-0.191c-0.324,0-0.615,0.049-0.874,0.146s-0.48,0.231-0.664,0.402
			c-0.183,0.171-0.324,0.366-0.421,0.585c-0.097,0.219-0.146,0.451-0.146,0.696h1.386c0-0.148,0.025-0.276,0.073-0.386
			c0.049-0.11,0.124-0.194,0.226-0.253c0.103-0.06,0.226-0.089,0.37-0.089c0.137,0,0.252,0.026,0.345,0.078
			c0.093,0.052,0.165,0.135,0.213,0.248c0.049,0.113,0.073,0.263,0.073,0.45v0.502h-0.469c-0.388,0-0.729,0.047-1.022,0.14
			s-0.535,0.225-0.726,0.394c-0.191,0.169-0.334,0.372-0.429,0.61s-0.143,0.504-0.143,0.798c0,0.356,0.075,0.664,0.224,0.923
			s0.351,0.459,0.607,0.599c0.255,0.14,0.543,0.21,0.863,0.21c0.227,0,0.423-0.041,0.591-0.124s0.309-0.188,0.426-0.316
			c0.051-0.056,0.096-0.114,0.139-0.174c0.032,0.199,0.073,0.371,0.128,0.506h1.403V57.55c-0.068-0.147-0.119-0.325-0.151-0.534
			C36.322,56.808,36.305,56.554,36.305,56.256z M34.595,56.509c-0.137,0.079-0.299,0.119-0.486,0.119
			c-0.126,0-0.234-0.027-0.324-0.081s-0.158-0.133-0.205-0.238c-0.047-0.104-0.07-0.237-0.07-0.399c0-0.144,0.022-0.274,0.065-0.391
			s0.107-0.218,0.191-0.305c0.085-0.086,0.19-0.153,0.316-0.2c0.126-0.047,0.27-0.07,0.432-0.07h0.399v1.257
			c-0.005,0.008-0.006,0.016-0.011,0.024C34.834,56.336,34.732,56.43,34.595,56.509z"/>
		<path class="st1" d="M40.329,52.31c-0.127-0.172-0.271-0.31-0.434-0.414c-0.211-0.133-0.458-0.2-0.742-0.2
			c-0.302,0-0.571,0.058-0.806,0.172c-0.236,0.115-0.437,0.29-0.604,0.524c-0.167,0.234-0.292,0.528-0.375,0.882
			s-0.124,0.771-0.124,1.249v0.426c0,0.457,0.041,0.86,0.124,1.209s0.207,0.641,0.372,0.877s0.366,0.414,0.601,0.534
			c0.236,0.121,0.503,0.181,0.801,0.181c0.284,0,0.531-0.067,0.742-0.2c0.196-0.124,0.366-0.299,0.511-0.521l0.064,0.618
			l1.257-0.005v-8.287H40.33v2.955H40.329z M40.067,56.412c-0.135,0.108-0.31,0.162-0.526,0.162c-0.169,0-0.311-0.031-0.426-0.094
			c-0.115-0.063-0.209-0.161-0.281-0.294s-0.124-0.302-0.157-0.507c-0.032-0.205-0.049-0.448-0.049-0.728v-0.426
			c0-0.288,0.017-0.536,0.051-0.745s0.086-0.381,0.156-0.518s0.164-0.237,0.281-0.302c0.117-0.065,0.26-0.097,0.429-0.097
			c0.155,0,0.289,0.033,0.404,0.1c0.115,0.067,0.212,0.158,0.292,0.275c0.032,0.047,0.06,0.101,0.086,0.155v2.668
			C40.261,56.202,40.177,56.324,40.067,56.412z"/>
		<polygon class="st1" points="51.219,49.787 50.642,49.787 48.948,55.398 47.237,49.787 46.66,49.787 45.953,49.787 45.446,49.787 
			45.446,57.642 46.849,57.642 46.849,54.88 46.756,52.366 48.397,57.642 49.482,57.642 51.14,52.054 51.041,54.88 51.041,57.642 
			52.438,57.642 52.438,49.787 51.812,49.787 		"/>
		<path class="st1" d="M57.465,52.414c-0.18-0.237-0.407-0.416-0.682-0.537s-0.596-0.181-0.963-0.181
			c-0.342,0-0.654,0.058-0.936,0.175s-0.523,0.294-0.723,0.531s-0.355,0.535-0.467,0.893c-0.111,0.358-0.167,0.778-0.167,1.26v0.523
			c0,0.428,0.055,0.807,0.165,1.138s0.269,0.61,0.477,0.836c0.209,0.227,0.463,0.399,0.763,0.518c0.3,0.119,0.645,0.178,1.033,0.178
			c0.338,0,0.633-0.043,0.885-0.129c0.252-0.086,0.467-0.197,0.647-0.332c0.18-0.135,0.322-0.272,0.426-0.413l-0.577-0.847
			c-0.155,0.176-0.338,0.315-0.55,0.415c-0.212,0.101-0.459,0.151-0.739,0.151c-0.187,0-0.351-0.027-0.491-0.081
			s-0.259-0.141-0.356-0.262c-0.097-0.121-0.17-0.277-0.219-0.469c-0.042-0.168-0.063-0.374-0.068-0.607h3.076V54.51
			c0-0.46-0.044-0.866-0.132-1.217C57.779,52.946,57.645,52.652,57.465,52.414z M56.64,54.168h-1.71
			c0.009-0.149,0.022-0.285,0.041-0.405c0.034-0.216,0.087-0.39,0.159-0.523s0.165-0.231,0.278-0.294s0.249-0.095,0.408-0.095
			c0.201,0,0.361,0.046,0.48,0.138s0.204,0.226,0.256,0.402c0.052,0.176,0.082,0.39,0.089,0.642v0.135H56.64z"/>
		<polygon class="st1" points="63.021,51.805 61.526,51.805 60.825,53.439 60.043,51.805 58.543,51.805 60.005,54.675 
			58.489,57.642 59.989,57.642 60.776,55.954 61.575,57.642 63.075,57.642 61.505,54.664 		"/>
		<rect x="63.866" y="51.805" class="st1" width="1.387" height="5.838"/>
		<path class="st1" d="M64.562,49.528c-0.237,0-0.424,0.071-0.561,0.213c-0.137,0.142-0.205,0.323-0.205,0.542
			c0,0.212,0.068,0.391,0.205,0.537s0.324,0.219,0.561,0.219s0.423-0.073,0.556-0.219s0.2-0.325,0.2-0.537
			c0-0.219-0.067-0.4-0.2-0.542C64.985,49.599,64.8,49.528,64.562,49.528z"/>
		<path class="st1" d="M67.706,53.796c0.022-0.202,0.063-0.372,0.124-0.513c0.061-0.14,0.15-0.247,0.267-0.321
			c0.117-0.074,0.269-0.111,0.456-0.111c0.176,0,0.32,0.042,0.432,0.127c0.111,0.084,0.196,0.207,0.253,0.367
			c0.058,0.16,0.09,0.359,0.097,0.596h1.295c-0.004-0.486-0.091-0.895-0.262-1.227c-0.171-0.333-0.409-0.585-0.715-0.758
			s-0.664-0.259-1.074-0.259c-0.388,0-0.728,0.062-1.017,0.186c-0.29,0.124-0.528,0.307-0.715,0.548s-0.327,0.533-0.421,0.877
			c-0.094,0.343-0.14,0.735-0.14,1.173v0.48c0,0.442,0.047,0.835,0.14,1.179c0.093,0.343,0.234,0.636,0.421,0.877
			c0.187,0.241,0.425,0.423,0.715,0.548c0.289,0.124,0.63,0.186,1.022,0.186c0.381,0,0.725-0.084,1.03-0.253s0.55-0.41,0.734-0.723
			c0.183-0.313,0.277-0.683,0.281-1.111h-1.295c-0.007,0.219-0.043,0.399-0.108,0.539c-0.065,0.14-0.154,0.241-0.267,0.302
			c-0.113,0.061-0.246,0.092-0.397,0.092c-0.194,0-0.351-0.035-0.469-0.105c-0.119-0.07-0.208-0.175-0.267-0.316
			c-0.059-0.14-0.1-0.31-0.121-0.51c-0.021-0.2-0.032-0.434-0.032-0.704v-0.48C67.674,54.225,67.685,53.997,67.706,53.796z"/>
		<path class="st1" d="M75.533,56.256v-2.66c0-0.453-0.086-0.819-0.256-1.098c-0.171-0.279-0.406-0.482-0.704-0.61
			c-0.299-0.128-0.637-0.191-1.014-0.191c-0.324,0-0.615,0.049-0.874,0.146s-0.48,0.231-0.664,0.402
			c-0.183,0.171-0.324,0.366-0.421,0.585c-0.097,0.219-0.146,0.451-0.146,0.696h1.386c0-0.148,0.025-0.276,0.073-0.386
			c0.049-0.11,0.124-0.194,0.226-0.253c0.103-0.06,0.226-0.089,0.37-0.089c0.137,0,0.252,0.026,0.345,0.078s0.165,0.135,0.213,0.248
			c0.049,0.113,0.073,0.263,0.073,0.45v0.502h-0.469c-0.388,0-0.729,0.047-1.022,0.14c-0.293,0.093-0.535,0.225-0.726,0.394
			c-0.191,0.169-0.334,0.372-0.429,0.61s-0.143,0.504-0.143,0.798c0,0.356,0.075,0.664,0.224,0.923s0.351,0.459,0.607,0.599
			c0.255,0.14,0.543,0.21,0.863,0.21c0.227,0,0.423-0.041,0.591-0.124s0.309-0.188,0.426-0.316c0.051-0.056,0.096-0.114,0.139-0.174
			c0.032,0.199,0.073,0.371,0.128,0.506h1.403V57.55c-0.068-0.147-0.119-0.325-0.151-0.534
			C75.55,56.808,75.533,56.554,75.533,56.256z M73.823,56.509c-0.137,0.079-0.299,0.119-0.486,0.119
			c-0.126,0-0.234-0.027-0.324-0.081s-0.158-0.133-0.205-0.238c-0.047-0.104-0.07-0.237-0.07-0.399c0-0.144,0.022-0.274,0.065-0.391
			s0.107-0.218,0.191-0.305c0.085-0.086,0.19-0.153,0.316-0.2s0.27-0.07,0.432-0.07h0.399v1.257
			c-0.005,0.008-0.006,0.016-0.011,0.024C74.062,56.336,73.96,56.43,73.823,56.509z"/>
		<path class="st1" d="M80.48,52.193c-0.137-0.172-0.299-0.298-0.488-0.378c-0.189-0.079-0.4-0.119-0.634-0.119
			c-0.299,0-0.567,0.067-0.807,0.2c-0.215,0.12-0.402,0.289-0.563,0.502l-0.044-0.593h-1.295v5.838h1.387v-4.23
			c0.01-0.021,0.018-0.045,0.03-0.065c0.084-0.151,0.188-0.27,0.31-0.356c0.122-0.086,0.261-0.129,0.415-0.129
			c0.165,0,0.301,0.031,0.407,0.094c0.106,0.063,0.187,0.169,0.243,0.318c0.056,0.149,0.084,0.355,0.084,0.618v3.75h1.387V53.91
			c0-0.41-0.038-0.755-0.113-1.036C80.723,52.592,80.616,52.366,80.48,52.193z"/>
		<path class="st1" d="M86.068,56.256v-2.66c0-0.453-0.086-0.819-0.256-1.098c-0.171-0.279-0.406-0.482-0.704-0.61
			c-0.299-0.128-0.637-0.191-1.014-0.191c-0.324,0-0.615,0.049-0.874,0.146s-0.48,0.231-0.664,0.402s-0.324,0.366-0.421,0.585
			c-0.097,0.219-0.146,0.451-0.146,0.696h1.386c0-0.148,0.025-0.276,0.073-0.386c0.049-0.11,0.124-0.194,0.226-0.253
			c0.103-0.06,0.226-0.089,0.37-0.089c0.137,0,0.252,0.026,0.345,0.078s0.165,0.135,0.213,0.248c0.049,0.113,0.073,0.263,0.073,0.45
			v0.502h-0.469c-0.388,0-0.729,0.047-1.022,0.14c-0.293,0.093-0.535,0.225-0.726,0.394c-0.191,0.169-0.334,0.372-0.429,0.61
			c-0.095,0.237-0.143,0.504-0.143,0.798c0,0.356,0.075,0.664,0.224,0.923s0.351,0.459,0.607,0.599
			c0.255,0.14,0.543,0.21,0.863,0.21c0.227,0,0.423-0.041,0.591-0.124s0.309-0.188,0.426-0.316c0.051-0.056,0.096-0.114,0.139-0.174
			c0.032,0.199,0.073,0.371,0.128,0.506h1.403V57.55c-0.068-0.147-0.119-0.325-0.151-0.534
			C86.084,56.808,86.068,56.554,86.068,56.256z M84.358,56.509c-0.137,0.079-0.299,0.119-0.486,0.119
			c-0.126,0-0.234-0.027-0.324-0.081s-0.158-0.133-0.205-0.238c-0.047-0.104-0.07-0.237-0.07-0.399c0-0.144,0.022-0.274,0.065-0.391
			s0.107-0.218,0.191-0.305c0.085-0.086,0.19-0.153,0.316-0.2s0.27-0.07,0.432-0.07h0.399v1.257
			c-0.005,0.008-0.006,0.016-0.011,0.024C84.597,56.336,84.494,56.43,84.358,56.509z"/>
		<path class="st1" d="M92.583,52.31c-0.127-0.172-0.271-0.31-0.434-0.414c-0.211-0.133-0.458-0.2-0.742-0.2
			c-0.302,0-0.571,0.058-0.806,0.172c-0.236,0.115-0.437,0.29-0.604,0.524c-0.167,0.234-0.292,0.528-0.375,0.882
			s-0.124,0.771-0.124,1.249v0.426c0,0.457,0.041,0.86,0.124,1.209s0.207,0.641,0.372,0.877s0.366,0.414,0.601,0.534
			c0.236,0.121,0.503,0.181,0.801,0.181c0.284,0,0.531-0.067,0.742-0.2c0.196-0.124,0.366-0.299,0.511-0.521l0.063,0.618
			l1.257-0.005v-8.287h-1.386C92.583,49.355,92.583,52.31,92.583,52.31z M92.321,56.412c-0.135,0.108-0.31,0.162-0.526,0.162
			c-0.169,0-0.311-0.031-0.426-0.094c-0.115-0.063-0.209-0.161-0.281-0.294s-0.124-0.302-0.157-0.507
			c-0.032-0.205-0.049-0.448-0.049-0.728v-0.426c0-0.288,0.017-0.536,0.051-0.745c0.034-0.209,0.086-0.381,0.156-0.518
			s0.164-0.237,0.281-0.302s0.26-0.097,0.429-0.097c0.155,0,0.289,0.033,0.404,0.1c0.115,0.067,0.212,0.158,0.292,0.275
			c0.032,0.047,0.06,0.101,0.086,0.155v2.668C92.514,56.202,92.431,56.324,92.321,56.412z"/>
		<path class="st1" d="M98.91,52.414c-0.18-0.237-0.407-0.416-0.682-0.537s-0.596-0.181-0.963-0.181
			c-0.342,0-0.654,0.058-0.936,0.175s-0.523,0.294-0.723,0.531s-0.355,0.535-0.467,0.893c-0.111,0.358-0.167,0.778-0.167,1.26v0.523
			c0,0.428,0.055,0.807,0.165,1.138s0.269,0.61,0.477,0.836c0.209,0.227,0.463,0.399,0.763,0.518c0.3,0.119,0.645,0.178,1.033,0.178
			c0.338,0,0.633-0.043,0.885-0.129c0.252-0.086,0.467-0.197,0.647-0.332c0.18-0.135,0.322-0.272,0.426-0.413l-0.577-0.847
			c-0.155,0.176-0.338,0.315-0.55,0.415c-0.212,0.101-0.459,0.151-0.739,0.151c-0.187,0-0.351-0.027-0.491-0.081
			s-0.259-0.141-0.356-0.262c-0.097-0.121-0.17-0.277-0.219-0.469c-0.042-0.168-0.063-0.374-0.068-0.607h3.076V54.51
			c0-0.46-0.044-0.866-0.132-1.217C99.224,52.946,99.089,52.652,98.91,52.414z M98.084,54.168h-1.71
			c0.009-0.149,0.022-0.285,0.041-0.405c0.034-0.216,0.087-0.39,0.159-0.523s0.165-0.231,0.278-0.294s0.249-0.095,0.408-0.095
			c0.201,0,0.361,0.046,0.48,0.138s0.204,0.226,0.256,0.402c0.052,0.176,0.082,0.39,0.089,0.642L98.084,54.168L98.084,54.168z"/>
		<polygon class="st1" points="104.356,54.184 106.892,54.184 106.892,53.013 104.356,53.013 104.356,50.996 107.329,50.996 
			107.329,49.787 104.356,49.787 103.935,49.787 102.91,49.787 102.91,57.642 103.935,57.642 104.356,57.642 107.35,57.642 
			107.35,56.439 104.356,56.439 		"/>
		<rect x="108.277" y="49.355" class="st1" width="1.387" height="8.287"/>
		<path class="st1" d="M114.669,52.414c-0.18-0.237-0.407-0.416-0.682-0.537s-0.596-0.181-0.963-0.181
			c-0.342,0-0.654,0.058-0.936,0.175s-0.523,0.294-0.723,0.531s-0.355,0.535-0.467,0.893c-0.111,0.358-0.167,0.778-0.167,1.26v0.523
			c0,0.428,0.055,0.807,0.165,1.138s0.269,0.61,0.477,0.836c0.209,0.227,0.463,0.399,0.763,0.518c0.3,0.119,0.645,0.178,1.033,0.178
			c0.338,0,0.633-0.043,0.885-0.129c0.252-0.086,0.467-0.197,0.647-0.332c0.18-0.135,0.322-0.272,0.426-0.413l-0.577-0.847
			c-0.155,0.176-0.338,0.315-0.55,0.415c-0.212,0.101-0.459,0.151-0.739,0.151c-0.187,0-0.351-0.027-0.491-0.081
			s-0.259-0.141-0.356-0.262c-0.097-0.121-0.17-0.277-0.219-0.469c-0.042-0.168-0.063-0.374-0.068-0.607h3.076V54.51
			c0-0.46-0.044-0.866-0.132-1.217C114.983,52.946,114.849,52.652,114.669,52.414z M113.843,54.168h-1.71
			c0.009-0.149,0.022-0.285,0.041-0.405c0.034-0.216,0.087-0.39,0.159-0.523s0.165-0.231,0.278-0.294s0.249-0.095,0.408-0.095
			c0.201,0,0.361,0.046,0.48,0.138s0.204,0.226,0.256,0.402c0.052,0.176,0.082,0.39,0.089,0.642L113.843,54.168L113.843,54.168z"/>
		<path class="st1" d="M117.327,53.796c0.022-0.202,0.063-0.372,0.124-0.513c0.061-0.14,0.15-0.247,0.267-0.321
			c0.117-0.074,0.269-0.111,0.456-0.111c0.176,0,0.32,0.042,0.432,0.127c0.111,0.084,0.196,0.207,0.253,0.367
			c0.058,0.16,0.09,0.359,0.097,0.596h1.295c-0.004-0.486-0.091-0.895-0.262-1.227c-0.171-0.333-0.409-0.585-0.715-0.758
			s-0.664-0.259-1.074-0.259c-0.388,0-0.728,0.062-1.017,0.186c-0.29,0.124-0.528,0.307-0.715,0.548s-0.327,0.533-0.421,0.877
			c-0.094,0.343-0.14,0.735-0.14,1.173v0.48c0,0.442,0.047,0.835,0.14,1.179c0.093,0.343,0.234,0.636,0.421,0.877
			c0.187,0.241,0.425,0.423,0.715,0.548c0.289,0.124,0.63,0.186,1.022,0.186c0.381,0,0.725-0.084,1.03-0.253
			c0.306-0.169,0.55-0.41,0.734-0.723c0.183-0.313,0.277-0.683,0.281-1.111h-1.295c-0.007,0.219-0.043,0.399-0.108,0.539
			c-0.065,0.14-0.154,0.241-0.267,0.302c-0.113,0.061-0.246,0.092-0.397,0.092c-0.194,0-0.351-0.035-0.469-0.105
			c-0.119-0.07-0.208-0.175-0.267-0.316c-0.059-0.14-0.1-0.31-0.121-0.51c-0.021-0.2-0.032-0.434-0.032-0.704v-0.48
			C117.295,54.225,117.306,53.997,117.327,53.796z"/>
		<path class="st1" d="M123.234,56.563c-0.101,0-0.186-0.016-0.256-0.049c-0.07-0.032-0.122-0.095-0.156-0.186
			c-0.034-0.092-0.051-0.222-0.051-0.391v-3.081h0.804v-1.052h-0.804V50.37h-1.381v1.435h-0.739v1.052h0.739v3.205
			c0,0.406,0.06,0.735,0.178,0.985c0.119,0.25,0.283,0.43,0.491,0.539c0.209,0.11,0.453,0.165,0.734,0.165
			c0.18,0,0.332-0.012,0.458-0.038c0.126-0.025,0.241-0.06,0.345-0.103v-1.095c-0.032,0.011-0.082,0.021-0.148,0.032
			C123.38,56.558,123.309,56.563,123.234,56.563z"/>
		<path class="st1" d="M126.793,51.697c-0.223,0-0.421,0.065-0.593,0.197c-0.167,0.127-0.308,0.305-0.423,0.53l-0.036-0.619h-1.311
			v5.838h1.381v-3.92c0.04-0.11,0.087-0.211,0.148-0.293c0.081-0.108,0.183-0.191,0.308-0.248c0.124-0.057,0.27-0.086,0.44-0.086
			c0.072,0,0.152,0.003,0.24,0.011c0.088,0.007,0.17,0.018,0.246,0.032l0.011-1.376c-0.043-0.018-0.106-0.033-0.189-0.046
			C126.932,51.703,126.858,51.697,126.793,51.697z"/>
		<path class="st1" d="M131.637,52.42c-0.205-0.237-0.45-0.417-0.736-0.539s-0.607-0.183-0.963-0.183
			c-0.349,0-0.666,0.061-0.95,0.183c-0.284,0.122-0.529,0.302-0.736,0.539c-0.207,0.237-0.365,0.531-0.475,0.879
			c-0.11,0.349-0.165,0.754-0.165,1.214v0.426c0,0.457,0.055,0.861,0.165,1.211c0.11,0.351,0.268,0.645,0.475,0.882
			s0.454,0.416,0.742,0.537c0.288,0.121,0.606,0.181,0.955,0.181s0.666-0.06,0.952-0.181s0.531-0.299,0.736-0.537
			c0.205-0.237,0.363-0.531,0.475-0.882c0.111-0.351,0.167-0.754,0.167-1.211v-0.426c0-0.46-0.056-0.865-0.167-1.214
			C132,52.95,131.842,52.657,131.637,52.42z M130.898,54.939c0,0.284-0.02,0.53-0.059,0.736c-0.04,0.207-0.099,0.38-0.178,0.518
			c-0.079,0.139-0.179,0.24-0.299,0.305c-0.121,0.065-0.258,0.097-0.413,0.097c-0.148,0-0.28-0.032-0.397-0.097
			s-0.217-0.166-0.299-0.305c-0.083-0.138-0.146-0.311-0.191-0.518s-0.067-0.452-0.067-0.736v-0.426
			c0-0.281,0.022-0.524,0.067-0.731s0.109-0.378,0.191-0.515c0.083-0.137,0.182-0.24,0.297-0.31c0.115-0.07,0.244-0.105,0.388-0.105
			c0.147,0,0.281,0.035,0.399,0.105c0.119,0.07,0.22,0.174,0.302,0.31c0.083,0.137,0.146,0.308,0.191,0.515s0.067,0.45,0.067,0.731
			L130.898,54.939L130.898,54.939z"/>
		<path class="st1" d="M135.455,49.242c-0.374,0-0.7,0.078-0.977,0.235c-0.277,0.156-0.49,0.385-0.639,0.685
			s-0.224,0.672-0.224,1.114v0.529h-0.723v1.052h0.723v4.786h1.387v-4.786h0.928v-1.052h-0.928v-0.529
			c0-0.187,0.027-0.345,0.081-0.472c0.054-0.128,0.135-0.225,0.243-0.291c0.108-0.067,0.238-0.1,0.389-0.1
			c0.068,0,0.137,0.004,0.208,0.011c0.07,0.007,0.128,0.018,0.175,0.032l0.027-1.106c-0.108-0.036-0.216-0.063-0.324-0.081
			C135.693,49.251,135.577,49.242,135.455,49.242z"/>
		<rect x="136.851" y="51.805" class="st1" width="1.387" height="5.838"/>
		<path class="st1" d="M137.547,49.528c-0.237,0-0.424,0.071-0.561,0.213c-0.137,0.142-0.205,0.323-0.205,0.542
			c0,0.212,0.068,0.391,0.205,0.537s0.324,0.219,0.561,0.219s0.423-0.073,0.556-0.219s0.2-0.325,0.2-0.537
			c0-0.219-0.067-0.4-0.2-0.542C137.97,49.599,137.785,49.528,137.547,49.528z"/>
		<path class="st1" d="M142.69,54.64c-0.254-0.164-0.577-0.317-0.969-0.461c-0.191-0.079-0.351-0.151-0.48-0.216
			c-0.13-0.065-0.231-0.127-0.305-0.186c-0.074-0.06-0.127-0.122-0.159-0.189c-0.032-0.067-0.049-0.141-0.049-0.224
			c0-0.111,0.025-0.211,0.076-0.299c0.05-0.088,0.122-0.158,0.216-0.21c0.094-0.052,0.207-0.078,0.34-0.078
			c0.158,0,0.288,0.032,0.388,0.097c0.101,0.065,0.174,0.152,0.221,0.262s0.07,0.235,0.07,0.375h1.381
			c0-0.356-0.082-0.671-0.246-0.944s-0.399-0.486-0.707-0.639s-0.675-0.229-1.103-0.229c-0.306,0-0.581,0.046-0.826,0.137
			c-0.245,0.092-0.452,0.216-0.623,0.372c-0.171,0.156-0.301,0.339-0.391,0.548c-0.09,0.209-0.135,0.435-0.135,0.68
			c0,0.23,0.036,0.434,0.108,0.612s0.18,0.336,0.324,0.472c0.144,0.137,0.319,0.262,0.526,0.375s0.443,0.224,0.71,0.332
			c0.255,0.111,0.458,0.211,0.607,0.299s0.259,0.175,0.329,0.262c0.07,0.086,0.105,0.185,0.105,0.297
			c0,0.122-0.026,0.227-0.078,0.316c-0.052,0.088-0.13,0.155-0.235,0.2c-0.104,0.045-0.236,0.067-0.394,0.067
			c-0.144,0-0.279-0.023-0.404-0.07c-0.126-0.047-0.227-0.13-0.305-0.248c-0.078-0.119-0.12-0.286-0.127-0.502h-1.327
			c0,0.32,0.082,0.625,0.246,0.914c0.163,0.29,0.404,0.527,0.723,0.712c0.318,0.185,0.71,0.278,1.174,0.278
			c0.316,0,0.602-0.041,0.858-0.124c0.255-0.083,0.475-0.201,0.658-0.353c0.183-0.153,0.323-0.335,0.418-0.545
			c0.095-0.211,0.143-0.445,0.143-0.704c0-0.316-0.063-0.585-0.189-0.806C143.133,54.996,142.944,54.803,142.69,54.64z"/>
		<rect x="144.493" y="51.805" class="st1" width="1.387" height="5.838"/>
		<path class="st1" d="M145.189,49.528c-0.237,0-0.424,0.071-0.561,0.213c-0.137,0.142-0.205,0.323-0.205,0.542
			c0,0.212,0.068,0.391,0.205,0.537c0.137,0.146,0.324,0.219,0.561,0.219s0.423-0.073,0.556-0.219s0.2-0.325,0.2-0.537
			c0-0.219-0.067-0.4-0.2-0.542C145.612,49.599,145.427,49.528,145.189,49.528z"/>
		<path class="st1" d="M150.945,52.42c-0.205-0.237-0.45-0.417-0.736-0.539s-0.607-0.183-0.963-0.183
			c-0.349,0-0.666,0.061-0.95,0.183c-0.284,0.122-0.529,0.302-0.736,0.539c-0.207,0.237-0.365,0.531-0.475,0.879
			c-0.11,0.349-0.165,0.754-0.165,1.214v0.426c0,0.457,0.055,0.861,0.165,1.211c0.11,0.351,0.268,0.645,0.475,0.882
			s0.454,0.416,0.742,0.537c0.288,0.121,0.606,0.181,0.955,0.181s0.666-0.06,0.952-0.181s0.531-0.299,0.736-0.537
			c0.205-0.237,0.363-0.531,0.475-0.882c0.111-0.351,0.167-0.754,0.167-1.211v-0.426c0-0.46-0.056-0.865-0.167-1.214
			C151.308,52.95,151.15,52.657,150.945,52.42z M150.206,54.939c0,0.284-0.02,0.53-0.059,0.736c-0.04,0.207-0.099,0.38-0.178,0.518
			c-0.079,0.139-0.179,0.24-0.299,0.305c-0.121,0.065-0.258,0.097-0.413,0.097c-0.148,0-0.28-0.032-0.397-0.097
			s-0.217-0.166-0.299-0.305c-0.083-0.138-0.146-0.311-0.191-0.518s-0.067-0.452-0.067-0.736v-0.426
			c0-0.281,0.022-0.524,0.067-0.731s0.109-0.378,0.191-0.515c0.083-0.137,0.182-0.24,0.297-0.31c0.115-0.07,0.244-0.105,0.388-0.105
			c0.147,0,0.281,0.035,0.399,0.105c0.119,0.07,0.22,0.174,0.302,0.31c0.083,0.137,0.146,0.308,0.191,0.515s0.067,0.45,0.067,0.731
			L150.206,54.939L150.206,54.939z"/>
		<rect x="152.621" y="49.355" class="st1" width="1.387" height="8.287"/>
		<path class="st1" d="M159.073,52.42c-0.205-0.237-0.45-0.417-0.736-0.539s-0.607-0.183-0.963-0.183
			c-0.349,0-0.666,0.061-0.95,0.183c-0.284,0.122-0.529,0.302-0.736,0.539c-0.207,0.237-0.365,0.531-0.475,0.879
			c-0.11,0.349-0.165,0.754-0.165,1.214v0.426c0,0.457,0.055,0.861,0.165,1.211c0.11,0.351,0.268,0.645,0.475,0.882
			s0.454,0.416,0.742,0.537c0.288,0.121,0.606,0.181,0.955,0.181s0.666-0.06,0.952-0.181s0.531-0.299,0.736-0.537
			c0.205-0.237,0.363-0.531,0.475-0.882c0.111-0.351,0.167-0.754,0.167-1.211v-0.426c0-0.46-0.056-0.865-0.167-1.214
			C159.436,52.95,159.278,52.657,159.073,52.42z M158.334,54.939c0,0.284-0.02,0.53-0.059,0.736c-0.04,0.207-0.099,0.38-0.178,0.518
			c-0.079,0.139-0.179,0.24-0.299,0.305c-0.121,0.065-0.258,0.097-0.413,0.097c-0.148,0-0.28-0.032-0.397-0.097
			s-0.217-0.166-0.299-0.305c-0.083-0.138-0.146-0.311-0.191-0.518s-0.067-0.452-0.067-0.736v-0.426
			c0-0.281,0.022-0.524,0.067-0.731s0.109-0.378,0.191-0.515c0.083-0.137,0.182-0.24,0.297-0.31c0.115-0.07,0.244-0.105,0.388-0.105
			c0.147,0,0.281,0.035,0.399,0.105c0.119,0.07,0.22,0.174,0.302,0.31c0.083,0.137,0.146,0.308,0.191,0.515s0.067,0.45,0.067,0.731
			L158.334,54.939L158.334,54.939z"/>
		<path class="st1" d="M163.711,52.345c-0.124-0.188-0.274-0.339-0.453-0.449c-0.216-0.133-0.482-0.2-0.798-0.2
			c-0.306,0-0.581,0.058-0.826,0.172c-0.244,0.115-0.452,0.29-0.623,0.524c-0.171,0.234-0.3,0.528-0.388,0.882
			s-0.132,0.771-0.132,1.249v0.426c0,0.457,0.045,0.86,0.135,1.209s0.219,0.641,0.388,0.877s0.374,0.414,0.615,0.534
			c0.241,0.121,0.514,0.181,0.82,0.181c0.291,0,0.544-0.067,0.758-0.2c0.161-0.1,0.302-0.232,0.424-0.395v0.514
			c0,0.288-0.04,0.515-0.119,0.682c-0.079,0.167-0.195,0.287-0.348,0.359c-0.153,0.072-0.339,0.108-0.559,0.108
			c-0.216,0-0.438-0.049-0.666-0.146s-0.42-0.225-0.574-0.383l-0.48,0.96c0.137,0.151,0.313,0.278,0.529,0.38
			s0.436,0.18,0.661,0.232c0.225,0.052,0.425,0.078,0.602,0.078c0.467,0,0.877-0.08,1.23-0.24s0.627-0.409,0.823-0.747
			s0.294-0.771,0.294-1.3v-5.848h-1.257L163.711,52.345z M163.398,56.412c-0.14,0.108-0.325,0.162-0.556,0.162
			c-0.169,0-0.315-0.031-0.437-0.094c-0.122-0.063-0.222-0.161-0.299-0.294s-0.135-0.302-0.173-0.507
			c-0.038-0.205-0.057-0.448-0.057-0.728v-0.426c0-0.288,0.02-0.536,0.06-0.745s0.099-0.381,0.178-0.518s0.181-0.237,0.305-0.302
			s0.269-0.097,0.434-0.097c0.162,0,0.303,0.033,0.424,0.1c0.121,0.067,0.22,0.158,0.299,0.275c0.02,0.03,0.036,0.065,0.054,0.097
			v2.797C163.567,56.241,163.493,56.339,163.398,56.412z"/>
		<polygon class="st1" points="168.906,49.425 167.325,49.425 166.267,51.071 167.427,51.071 		"/>
		<rect x="166.262" y="51.805" class="st1" width="1.387" height="5.838"/>
		<path class="st1" d="M172.961,56.256v-2.66c0-0.453-0.086-0.819-0.256-1.098c-0.171-0.279-0.406-0.482-0.704-0.61
			c-0.299-0.128-0.637-0.191-1.014-0.191c-0.324,0-0.615,0.049-0.874,0.146c-0.259,0.097-0.48,0.231-0.664,0.402
			c-0.183,0.171-0.324,0.366-0.421,0.585c-0.097,0.219-0.146,0.451-0.146,0.696h1.386c0-0.148,0.025-0.276,0.073-0.386
			c0.049-0.11,0.124-0.194,0.226-0.253c0.103-0.06,0.226-0.089,0.37-0.089c0.137,0,0.252,0.026,0.345,0.078s0.165,0.135,0.213,0.248
			c0.049,0.113,0.073,0.263,0.073,0.45v0.502H171.1c-0.388,0-0.729,0.047-1.022,0.14s-0.535,0.225-0.726,0.394
			c-0.191,0.169-0.334,0.372-0.429,0.61c-0.095,0.237-0.143,0.504-0.143,0.798c0,0.356,0.075,0.664,0.224,0.923
			s0.351,0.459,0.607,0.599c0.255,0.14,0.543,0.21,0.863,0.21c0.227,0,0.423-0.041,0.591-0.124c0.167-0.083,0.309-0.188,0.426-0.316
			c0.051-0.056,0.096-0.114,0.139-0.174c0.032,0.199,0.073,0.371,0.128,0.506h1.403V57.55c-0.068-0.147-0.119-0.325-0.151-0.534
			C172.978,56.808,172.961,56.554,172.961,56.256z M171.251,56.509c-0.137,0.079-0.299,0.119-0.486,0.119
			c-0.126,0-0.234-0.027-0.324-0.081c-0.09-0.054-0.158-0.133-0.205-0.238c-0.047-0.104-0.07-0.237-0.07-0.399
			c0-0.144,0.022-0.274,0.065-0.391s0.107-0.218,0.191-0.305c0.085-0.086,0.19-0.153,0.316-0.2c0.126-0.047,0.27-0.07,0.432-0.07
			h0.399v1.257c-0.005,0.008-0.005,0.016-0.011,0.024C171.49,56.336,171.388,56.43,171.251,56.509z"/>
		<path class="st1" d="M178.413,55.401l-0.809-3.596h-1.489l1.692,5.884l-0.139,0.428c-0.051,0.162-0.11,0.295-0.178,0.399
			s-0.157,0.181-0.267,0.229c-0.11,0.049-0.249,0.073-0.418,0.073c-0.032,0-0.065-0.001-0.097-0.003s-0.063-0.005-0.092-0.008
			l-0.005,1.095c0.108,0.032,0.205,0.057,0.291,0.073c0.086,0.016,0.187,0.025,0.302,0.025c0.255,0,0.475-0.049,0.658-0.146
			s0.336-0.222,0.459-0.375c0.122-0.153,0.22-0.315,0.294-0.486s0.134-0.328,0.181-0.472l1.921-6.717h-1.446L178.413,55.401z"/>
		<polygon class="st1" points="185.414,54.184 187.949,54.184 187.949,53.013 185.414,53.013 185.414,50.996 188.386,50.996 
			188.386,49.787 185.414,49.787 184.993,49.787 183.968,49.787 183.968,57.642 184.993,57.642 185.414,57.642 188.408,57.642 
			188.408,56.439 185.414,56.439 		"/>
		<path class="st1" d="M192.499,54.64c-0.254-0.164-0.577-0.317-0.969-0.461c-0.191-0.079-0.351-0.151-0.48-0.216
			c-0.13-0.065-0.231-0.127-0.305-0.186c-0.074-0.06-0.127-0.122-0.159-0.189c-0.032-0.067-0.049-0.141-0.049-0.224
			c0-0.111,0.025-0.211,0.076-0.299c0.05-0.088,0.122-0.158,0.216-0.21c0.094-0.052,0.207-0.078,0.34-0.078
			c0.158,0,0.288,0.032,0.388,0.097c0.101,0.065,0.174,0.152,0.221,0.262s0.07,0.235,0.07,0.375h1.381
			c0-0.356-0.082-0.671-0.246-0.944s-0.399-0.486-0.707-0.639s-0.675-0.229-1.103-0.229c-0.306,0-0.581,0.046-0.826,0.137
			c-0.245,0.092-0.452,0.216-0.623,0.372c-0.171,0.156-0.301,0.339-0.391,0.548c-0.09,0.209-0.135,0.435-0.135,0.68
			c0,0.23,0.036,0.434,0.108,0.612s0.18,0.336,0.324,0.472c0.144,0.137,0.319,0.262,0.526,0.375s0.443,0.224,0.71,0.332
			c0.255,0.111,0.458,0.211,0.607,0.299s0.259,0.175,0.329,0.262c0.07,0.086,0.105,0.185,0.105,0.297
			c0,0.122-0.026,0.227-0.078,0.316c-0.052,0.088-0.13,0.155-0.235,0.2c-0.104,0.045-0.236,0.067-0.394,0.067
			c-0.144,0-0.279-0.023-0.404-0.07c-0.126-0.047-0.227-0.13-0.305-0.248c-0.078-0.119-0.12-0.286-0.127-0.502h-1.327
			c0,0.32,0.082,0.625,0.246,0.914c0.163,0.29,0.404,0.527,0.723,0.712c0.318,0.185,0.71,0.278,1.174,0.278
			c0.316,0,0.602-0.041,0.858-0.124c0.255-0.083,0.475-0.201,0.658-0.353c0.183-0.153,0.323-0.335,0.418-0.545
			c0.095-0.211,0.143-0.445,0.143-0.704c0-0.316-0.063-0.585-0.189-0.806C192.942,54.996,192.752,54.803,192.499,54.64z"/>
		<path class="st1" d="M196.341,56.563c-0.101,0-0.186-0.016-0.256-0.049c-0.07-0.032-0.122-0.095-0.156-0.186
			c-0.034-0.092-0.051-0.222-0.051-0.391v-3.081h0.804v-1.052h-0.804V50.37h-1.381v1.435h-0.739v1.052h0.739v3.205
			c0,0.406,0.06,0.735,0.178,0.985c0.119,0.25,0.283,0.43,0.491,0.539c0.209,0.11,0.453,0.165,0.734,0.165
			c0.18,0,0.332-0.012,0.458-0.038c0.126-0.025,0.241-0.06,0.345-0.103v-1.095c-0.032,0.011-0.082,0.021-0.148,0.032
			C196.488,56.558,196.417,56.563,196.341,56.563z"/>
		<rect x="197.608" y="51.805" class="st1" width="1.387" height="5.838"/>
		<path class="st1" d="M198.304,49.528c-0.237,0-0.424,0.071-0.561,0.213c-0.137,0.142-0.205,0.323-0.205,0.542
			c0,0.212,0.068,0.391,0.205,0.537c0.137,0.146,0.324,0.219,0.561,0.219s0.423-0.073,0.556-0.219s0.2-0.325,0.2-0.537
			c0-0.219-0.067-0.4-0.2-0.542C198.727,49.599,198.541,49.528,198.304,49.528z"/>
		<path class="st1" d="M206.8,52.196c-0.14-0.174-0.308-0.301-0.504-0.38c-0.196-0.079-0.415-0.119-0.656-0.119
			c-0.324,0-0.605,0.07-0.844,0.21s-0.438,0.333-0.596,0.577c-0.004,0.006-0.006,0.012-0.009,0.018
			c-0.056-0.124-0.122-0.235-0.198-0.328c-0.135-0.163-0.295-0.284-0.48-0.361s-0.384-0.116-0.596-0.116
			c-0.327,0-0.614,0.07-0.861,0.21c-0.192,0.109-0.357,0.255-0.498,0.434l-0.039-0.536h-1.3v5.838h1.387v-4.295
			c0.072-0.151,0.167-0.27,0.286-0.356c0.119-0.086,0.261-0.129,0.426-0.129c0.155,0,0.285,0.03,0.391,0.092
			c0.106,0.061,0.187,0.167,0.243,0.318s0.084,0.362,0.084,0.631v3.739h1.376v-3.895c0-0.068-0.003-0.132-0.005-0.196
			c0.03-0.1,0.065-0.195,0.11-0.279c0.07-0.129,0.156-0.23,0.256-0.302c0.101-0.072,0.223-0.108,0.367-0.108
			s0.269,0.029,0.375,0.086c0.106,0.058,0.187,0.16,0.243,0.308s0.084,0.362,0.084,0.642v3.744h1.392v-3.744
			c0-0.403-0.037-0.744-0.111-1.023C207.047,52.597,206.94,52.37,206.8,52.196z"/>
		<path class="st1" d="M211.223,56.038c-0.064,0.132-0.144,0.244-0.246,0.334c-0.153,0.135-0.361,0.202-0.623,0.202
			c-0.086,0-0.167-0.016-0.243-0.049c-0.076-0.032-0.142-0.088-0.2-0.167s-0.102-0.181-0.132-0.305s-0.046-0.278-0.046-0.461v-3.787
			h-1.387v3.777c0,0.385,0.04,0.715,0.119,0.99c0.079,0.275,0.191,0.5,0.334,0.674c0.144,0.174,0.315,0.302,0.513,0.383
			s0.417,0.121,0.658,0.121c0.316,0,0.591-0.067,0.823-0.202c0.188-0.109,0.348-0.256,0.482-0.437l0.033,0.531h1.306v-5.838h-1.392
			L211.223,56.038L211.223,56.038z"/>
		<rect x="213.806" y="49.355" class="st1" width="1.387" height="8.287"/>
		<path class="st1" d="M220.44,56.256v-2.66c0-0.453-0.086-0.819-0.256-1.098c-0.171-0.279-0.406-0.482-0.704-0.61
			c-0.299-0.128-0.637-0.191-1.014-0.191c-0.324,0-0.615,0.049-0.874,0.146c-0.259,0.097-0.48,0.231-0.664,0.402
			s-0.324,0.366-0.421,0.585c-0.097,0.219-0.146,0.451-0.146,0.696h1.386c0-0.148,0.025-0.276,0.073-0.386
			c0.049-0.11,0.124-0.194,0.226-0.253c0.103-0.06,0.226-0.089,0.37-0.089c0.137,0,0.252,0.026,0.345,0.078s0.165,0.135,0.213,0.248
			c0.049,0.113,0.073,0.263,0.073,0.45v0.502h-0.469c-0.388,0-0.729,0.047-1.022,0.14s-0.535,0.225-0.726,0.394
			c-0.191,0.169-0.334,0.372-0.429,0.61s-0.143,0.504-0.143,0.798c0,0.356,0.075,0.664,0.224,0.923s0.351,0.459,0.607,0.599
			c0.255,0.14,0.543,0.21,0.863,0.21c0.227,0,0.423-0.041,0.591-0.124c0.167-0.083,0.309-0.188,0.426-0.316
			c0.051-0.056,0.096-0.114,0.139-0.174c0.032,0.199,0.073,0.371,0.128,0.506h1.403V57.55c-0.068-0.147-0.119-0.325-0.151-0.534
			C220.457,56.808,220.44,56.554,220.44,56.256z M218.73,56.509c-0.137,0.079-0.299,0.119-0.486,0.119
			c-0.126,0-0.234-0.027-0.324-0.081c-0.09-0.054-0.158-0.133-0.205-0.238c-0.047-0.104-0.07-0.237-0.07-0.399
			c0-0.144,0.022-0.274,0.065-0.391s0.107-0.218,0.191-0.305c0.085-0.086,0.19-0.153,0.316-0.2c0.126-0.047,0.27-0.07,0.432-0.07
			h0.399v1.257c-0.005,0.008-0.005,0.016-0.011,0.024C218.969,56.336,218.867,56.43,218.73,56.509z"/>
		<path class="st1" d="M222.818,53.796c0.022-0.202,0.063-0.372,0.124-0.513c0.061-0.14,0.15-0.247,0.267-0.321
			c0.117-0.074,0.269-0.111,0.456-0.111c0.176,0,0.32,0.042,0.432,0.127c0.111,0.084,0.196,0.207,0.253,0.367
			c0.058,0.16,0.09,0.359,0.097,0.596h1.295c-0.004-0.486-0.091-0.895-0.262-1.227c-0.171-0.333-0.409-0.585-0.715-0.758
			s-0.664-0.259-1.074-0.259c-0.388,0-0.728,0.062-1.017,0.186c-0.29,0.124-0.528,0.307-0.715,0.548s-0.327,0.533-0.421,0.877
			c-0.094,0.343-0.14,0.735-0.14,1.173v0.48c0,0.442,0.047,0.835,0.14,1.179c0.093,0.343,0.234,0.636,0.421,0.877
			c0.187,0.241,0.425,0.423,0.715,0.548c0.289,0.124,0.63,0.186,1.022,0.186c0.381,0,0.725-0.084,1.03-0.253
			c0.306-0.169,0.55-0.41,0.734-0.723c0.183-0.313,0.277-0.683,0.281-1.111h-1.295c-0.007,0.219-0.043,0.399-0.108,0.539
			c-0.065,0.14-0.154,0.241-0.267,0.302c-0.113,0.061-0.246,0.092-0.397,0.092c-0.194,0-0.351-0.035-0.469-0.105
			c-0.119-0.07-0.208-0.175-0.267-0.316c-0.059-0.14-0.1-0.31-0.121-0.51c-0.021-0.2-0.032-0.434-0.032-0.704v-0.48
			C222.786,54.225,222.797,53.997,222.818,53.796z"/>
		<rect x="226.685" y="51.805" class="st1" width="1.387" height="5.838"/>
		<path class="st1" d="M227.381,49.528c-0.237,0-0.424,0.071-0.561,0.213c-0.137,0.142-0.205,0.323-0.205,0.542
			c0,0.212,0.068,0.391,0.205,0.537c0.137,0.146,0.324,0.219,0.561,0.219s0.423-0.073,0.556-0.219s0.2-0.325,0.2-0.537
			c0-0.219-0.067-0.4-0.2-0.542C227.804,49.599,227.618,49.528,227.381,49.528z"/>
		<polygon class="st1" points="233.352,49.355 231.772,49.355 230.714,51.001 231.874,51.001 		"/>
		<path class="st1" d="M233.137,52.42c-0.205-0.237-0.45-0.417-0.736-0.539s-0.607-0.183-0.963-0.183
			c-0.349,0-0.666,0.061-0.95,0.183c-0.284,0.122-0.529,0.302-0.736,0.539c-0.207,0.237-0.365,0.531-0.475,0.879
			c-0.11,0.349-0.165,0.754-0.165,1.214v0.426c0,0.457,0.055,0.861,0.165,1.211c0.11,0.351,0.268,0.645,0.475,0.882
			s0.454,0.416,0.742,0.537c0.288,0.121,0.606,0.181,0.955,0.181s0.666-0.06,0.952-0.181s0.531-0.299,0.736-0.537
			c0.205-0.237,0.363-0.531,0.475-0.882c0.111-0.351,0.167-0.754,0.167-1.211v-0.426c0-0.46-0.056-0.865-0.167-1.214
			C233.5,52.95,233.342,52.657,233.137,52.42z M232.397,54.939c0,0.284-0.02,0.53-0.059,0.736c-0.04,0.207-0.099,0.38-0.178,0.518
			c-0.079,0.139-0.179,0.24-0.299,0.305c-0.121,0.065-0.258,0.097-0.413,0.097c-0.148,0-0.28-0.032-0.397-0.097
			s-0.217-0.166-0.299-0.305c-0.083-0.138-0.146-0.311-0.191-0.518s-0.067-0.452-0.067-0.736v-0.426
			c0-0.281,0.022-0.524,0.067-0.731s0.109-0.378,0.191-0.515c0.083-0.137,0.182-0.24,0.297-0.31c0.115-0.07,0.244-0.105,0.388-0.105
			c0.147,0,0.281,0.035,0.399,0.105c0.119,0.07,0.22,0.174,0.302,0.31c0.083,0.137,0.146,0.308,0.191,0.515s0.067,0.45,0.067,0.731
			L232.397,54.939L232.397,54.939z"/>
		<path class="st1" d="M238.546,52.193c-0.137-0.172-0.299-0.298-0.488-0.378c-0.189-0.079-0.4-0.119-0.634-0.119
			c-0.299,0-0.567,0.067-0.807,0.2c-0.215,0.12-0.402,0.289-0.563,0.502l-0.044-0.593h-1.295v5.838h1.387v-4.23
			c0.01-0.021,0.018-0.045,0.03-0.065c0.084-0.151,0.188-0.27,0.31-0.356s0.261-0.129,0.415-0.129c0.165,0,0.301,0.031,0.407,0.094
			s0.187,0.169,0.243,0.318c0.056,0.149,0.084,0.355,0.084,0.618v3.75h1.387V53.91c0-0.41-0.038-0.755-0.113-1.036
			C238.789,52.592,238.683,52.366,238.546,52.193z"/>
		<path class="st1" d="M244.05,52.053c0.049-0.27,0.125-0.492,0.229-0.666s0.24-0.302,0.407-0.383
			c0.167-0.081,0.364-0.121,0.591-0.121c0.288,0,0.516,0.048,0.685,0.143c0.169,0.095,0.293,0.254,0.372,0.477
			s0.126,0.529,0.14,0.917h1.446c-0.04-0.594-0.162-1.093-0.367-1.5c-0.205-0.406-0.496-0.716-0.874-0.928
			c-0.378-0.212-0.845-0.318-1.403-0.318c-0.428,0-0.811,0.075-1.149,0.224s-0.625,0.366-0.861,0.65s-0.416,0.636-0.542,1.055
			s-0.189,0.897-0.189,1.432V54.4c0,0.536,0.06,1.012,0.181,1.427s0.297,0.766,0.531,1.052c0.234,0.286,0.517,0.503,0.85,0.65
			c0.332,0.147,0.711,0.221,1.135,0.221c0.558,0,1.031-0.104,1.422-0.313c0.39-0.209,0.691-0.513,0.901-0.914
			s0.328-0.893,0.353-1.476h-1.441c-0.018,0.392-0.069,0.696-0.154,0.912s-0.213,0.368-0.386,0.456
			c-0.172,0.088-0.404,0.132-0.696,0.132c-0.241,0-0.442-0.043-0.604-0.13c-0.162-0.086-0.29-0.218-0.386-0.397
			c-0.095-0.178-0.164-0.402-0.205-0.672s-0.062-0.586-0.062-0.949v-1.376C243.977,52.646,244.001,52.323,244.05,52.053z"/>
		<path class="st1" d="M252.861,56.256v-2.66c0-0.453-0.086-0.819-0.256-1.098c-0.171-0.279-0.406-0.482-0.704-0.61
			c-0.299-0.128-0.637-0.191-1.014-0.191c-0.324,0-0.615,0.049-0.874,0.146c-0.259,0.097-0.48,0.231-0.664,0.402
			c-0.183,0.171-0.324,0.366-0.421,0.585c-0.097,0.219-0.146,0.451-0.146,0.696h1.386c0-0.148,0.025-0.276,0.073-0.386
			c0.049-0.11,0.124-0.194,0.226-0.253c0.103-0.06,0.226-0.089,0.37-0.089c0.137,0,0.252,0.026,0.345,0.078s0.165,0.135,0.213,0.248
			c0.049,0.113,0.073,0.263,0.073,0.45v0.502H251c-0.388,0-0.729,0.047-1.022,0.14s-0.535,0.225-0.726,0.394
			c-0.191,0.169-0.334,0.372-0.429,0.61s-0.143,0.504-0.143,0.798c0,0.356,0.075,0.664,0.224,0.923s0.351,0.459,0.607,0.599
			c0.255,0.14,0.543,0.21,0.863,0.21c0.227,0,0.423-0.041,0.591-0.124c0.167-0.083,0.309-0.188,0.426-0.316
			c0.051-0.056,0.096-0.114,0.139-0.174c0.032,0.199,0.073,0.371,0.128,0.506h1.403V57.55c-0.068-0.147-0.119-0.325-0.151-0.534
			C252.878,56.808,252.861,56.554,252.861,56.256z M251.151,56.509c-0.137,0.079-0.299,0.119-0.486,0.119
			c-0.126,0-0.234-0.027-0.324-0.081c-0.09-0.054-0.158-0.133-0.205-0.238c-0.047-0.104-0.07-0.237-0.07-0.399
			c0-0.144,0.022-0.274,0.065-0.391s0.107-0.218,0.191-0.305c0.085-0.086,0.19-0.153,0.316-0.2c0.126-0.047,0.27-0.07,0.432-0.07
			h0.399v1.257c-0.005,0.008-0.006,0.016-0.011,0.024C251.39,56.336,251.288,56.43,251.151,56.509z"/>
		<path class="st1" d="M256.367,51.697c-0.223,0-0.421,0.065-0.593,0.197c-0.167,0.127-0.308,0.305-0.423,0.53l-0.036-0.619h-1.311
			v5.838h1.381v-3.92c0.04-0.11,0.087-0.211,0.148-0.293c0.081-0.108,0.183-0.191,0.308-0.248c0.124-0.057,0.27-0.086,0.44-0.086
			c0.072,0,0.152,0.003,0.24,0.011c0.088,0.007,0.17,0.018,0.246,0.032l0.011-1.376c-0.043-0.018-0.106-0.033-0.189-0.046
			C256.505,51.703,256.432,51.697,256.367,51.697z"/>
		<path class="st1" d="M260.315,52.31c-0.127-0.172-0.271-0.31-0.434-0.414c-0.211-0.133-0.458-0.2-0.742-0.2
			c-0.302,0-0.571,0.058-0.806,0.172c-0.236,0.115-0.437,0.29-0.604,0.524c-0.167,0.234-0.292,0.528-0.375,0.882
			s-0.124,0.771-0.124,1.249v0.426c0,0.457,0.042,0.86,0.124,1.209c0.083,0.349,0.207,0.641,0.372,0.877s0.366,0.414,0.601,0.534
			c0.236,0.121,0.503,0.181,0.801,0.181c0.284,0,0.531-0.067,0.742-0.2c0.196-0.124,0.366-0.299,0.511-0.521l0.064,0.618
			l1.257-0.005v-8.287h-1.386v2.955H260.315z M260.053,56.412c-0.135,0.108-0.31,0.162-0.526,0.162
			c-0.169,0-0.311-0.031-0.426-0.094c-0.115-0.063-0.209-0.161-0.281-0.294s-0.124-0.302-0.157-0.507
			c-0.032-0.205-0.049-0.448-0.049-0.728v-0.426c0-0.288,0.017-0.536,0.051-0.745s0.086-0.381,0.156-0.518s0.164-0.237,0.281-0.302
			s0.26-0.097,0.429-0.097c0.155,0,0.289,0.033,0.404,0.1c0.115,0.067,0.212,0.158,0.292,0.275c0.032,0.047,0.06,0.101,0.086,0.155
			v2.668C260.247,56.202,260.163,56.324,260.053,56.412z"/>
		<path class="st1" d="M263.621,49.528c-0.237,0-0.424,0.071-0.561,0.213c-0.137,0.142-0.205,0.323-0.205,0.542
			c0,0.212,0.068,0.391,0.205,0.537s0.324,0.219,0.561,0.219s0.423-0.073,0.556-0.219s0.2-0.325,0.2-0.537
			c0-0.219-0.067-0.4-0.2-0.542C264.043,49.599,263.858,49.528,263.621,49.528z"/>
		<rect x="262.925" y="51.805" class="st1" width="1.387" height="5.838"/>
		<path class="st1" d="M269.559,56.256v-2.66c0-0.453-0.086-0.819-0.256-1.098c-0.171-0.279-0.406-0.482-0.704-0.61
			c-0.299-0.128-0.637-0.191-1.014-0.191c-0.324,0-0.615,0.049-0.874,0.146s-0.48,0.231-0.664,0.402
			c-0.183,0.171-0.324,0.366-0.421,0.585c-0.097,0.219-0.146,0.451-0.146,0.696h1.386c0-0.148,0.025-0.276,0.073-0.386
			c0.049-0.11,0.124-0.194,0.226-0.253c0.103-0.06,0.226-0.089,0.37-0.089c0.137,0,0.252,0.026,0.345,0.078s0.165,0.135,0.213,0.248
			c0.049,0.113,0.073,0.263,0.073,0.45v0.502h-0.469c-0.388,0-0.729,0.047-1.022,0.14s-0.535,0.225-0.726,0.394
			c-0.191,0.169-0.334,0.372-0.429,0.61s-0.143,0.504-0.143,0.798c0,0.356,0.075,0.664,0.224,0.923s0.351,0.459,0.607,0.599
			c0.255,0.14,0.543,0.21,0.863,0.21c0.227,0,0.423-0.041,0.591-0.124c0.167-0.083,0.309-0.188,0.426-0.316
			c0.051-0.056,0.096-0.114,0.139-0.174c0.032,0.199,0.073,0.371,0.128,0.506h1.403V57.55c-0.068-0.147-0.119-0.325-0.151-0.534
			C269.576,56.808,269.559,56.554,269.559,56.256z M267.849,56.509c-0.137,0.079-0.299,0.119-0.486,0.119
			c-0.126,0-0.234-0.027-0.324-0.081s-0.158-0.133-0.205-0.238c-0.047-0.104-0.07-0.237-0.07-0.399c0-0.144,0.022-0.274,0.065-0.391
			s0.107-0.218,0.191-0.305c0.085-0.086,0.19-0.153,0.316-0.2s0.27-0.07,0.432-0.07h0.399v1.257
			c-0.005,0.008-0.005,0.016-0.011,0.024C268.088,56.336,267.986,56.43,267.849,56.509z"/>
		<path class="st1" d="M271.937,53.796c0.022-0.202,0.063-0.372,0.124-0.513c0.061-0.14,0.15-0.247,0.267-0.321
			c0.117-0.074,0.269-0.111,0.456-0.111c0.176,0,0.32,0.042,0.432,0.127c0.112,0.084,0.196,0.207,0.253,0.367
			c0.058,0.16,0.09,0.359,0.097,0.596h1.295c-0.004-0.486-0.091-0.895-0.262-1.227c-0.171-0.333-0.409-0.585-0.715-0.758
			s-0.664-0.259-1.074-0.259c-0.388,0-0.728,0.062-1.017,0.186c-0.29,0.124-0.528,0.307-0.715,0.548
			c-0.187,0.241-0.327,0.533-0.421,0.877c-0.094,0.343-0.14,0.735-0.14,1.173v0.48c0,0.442,0.047,0.835,0.14,1.179
			c0.093,0.343,0.234,0.636,0.421,0.877c0.187,0.241,0.425,0.423,0.715,0.548c0.289,0.124,0.63,0.186,1.022,0.186
			c0.381,0,0.725-0.084,1.03-0.253s0.55-0.41,0.734-0.723c0.183-0.313,0.277-0.683,0.281-1.111h-1.295
			c-0.007,0.219-0.043,0.399-0.108,0.539c-0.065,0.14-0.154,0.241-0.267,0.302c-0.113,0.061-0.246,0.092-0.397,0.092
			c-0.194,0-0.351-0.035-0.469-0.105c-0.119-0.07-0.208-0.175-0.267-0.316c-0.059-0.14-0.1-0.31-0.121-0.51
			c-0.021-0.2-0.032-0.434-0.032-0.704v-0.48C271.905,54.225,271.916,53.997,271.937,53.796z"/>
		<path class="st1" d="M279.765,56.256v-2.66c0-0.453-0.086-0.819-0.256-1.098c-0.171-0.279-0.406-0.482-0.704-0.61
			c-0.299-0.128-0.637-0.191-1.014-0.191c-0.324,0-0.615,0.049-0.874,0.146s-0.48,0.231-0.664,0.402s-0.324,0.366-0.421,0.585
			c-0.097,0.219-0.146,0.451-0.146,0.696h1.386c0-0.148,0.025-0.276,0.073-0.386c0.049-0.11,0.124-0.194,0.226-0.253
			c0.103-0.06,0.226-0.089,0.37-0.089c0.137,0,0.252,0.026,0.345,0.078s0.165,0.135,0.213,0.248c0.049,0.113,0.073,0.263,0.073,0.45
			v0.502h-0.469c-0.388,0-0.729,0.047-1.022,0.14s-0.535,0.225-0.726,0.394c-0.191,0.169-0.334,0.372-0.429,0.61
			s-0.143,0.504-0.143,0.798c0,0.356,0.074,0.664,0.224,0.923c0.149,0.259,0.351,0.459,0.607,0.599
			c0.255,0.14,0.543,0.21,0.863,0.21c0.227,0,0.423-0.041,0.591-0.124s0.309-0.188,0.426-0.316c0.051-0.056,0.096-0.114,0.139-0.174
			c0.032,0.199,0.073,0.371,0.128,0.506h1.403V57.55c-0.068-0.147-0.119-0.325-0.151-0.534
			C279.781,56.808,279.765,56.554,279.765,56.256z M278.055,56.509c-0.137,0.079-0.299,0.119-0.486,0.119
			c-0.126,0-0.234-0.027-0.324-0.081s-0.158-0.133-0.205-0.238c-0.047-0.104-0.07-0.237-0.07-0.399c0-0.144,0.022-0.274,0.065-0.391
			s0.107-0.218,0.191-0.305c0.085-0.086,0.19-0.153,0.316-0.2s0.27-0.07,0.432-0.07h0.399v1.257
			c-0.005,0.008-0.006,0.016-0.011,0.024C278.294,56.336,278.191,56.43,278.055,56.509z"/>
		<path class="st1" d="M286.371,49.787h-0.61h-0.34l-2.471,7.855h1.516l0.466-1.721h2.285l0.47,1.721h1.521l-2.487-7.855H286.371z
			 M285.258,54.718l0.812-3.001l0.819,3.001H285.258z"/>
		<path class="st1" d="M290.821,56.142c-0.255,0-0.456,0.075-0.602,0.227C290.073,56.52,290,56.707,290,56.93
			c0,0.216,0.073,0.398,0.218,0.548s0.346,0.224,0.602,0.224c0.255,0,0.456-0.075,0.601-0.224s0.218-0.332,0.218-0.548
			c0-0.223-0.073-0.41-0.218-0.561S291.076,56.142,290.821,56.142z"/>
		<path class="st1" d="M296.928,52.053c0.049-0.27,0.125-0.492,0.229-0.666s0.24-0.302,0.407-0.383
			c0.167-0.081,0.364-0.121,0.591-0.121c0.288,0,0.516,0.048,0.685,0.143s0.293,0.254,0.372,0.477s0.126,0.529,0.14,0.917h1.446
			c-0.04-0.594-0.162-1.093-0.367-1.5s-0.496-0.716-0.874-0.928s-0.845-0.318-1.403-0.318c-0.428,0-0.811,0.075-1.149,0.224
			c-0.338,0.149-0.625,0.366-0.861,0.65s-0.416,0.636-0.542,1.055s-0.189,0.897-0.189,1.432V54.4c0,0.536,0.06,1.012,0.181,1.427
			s0.297,0.766,0.531,1.052c0.234,0.286,0.517,0.503,0.85,0.65c0.332,0.147,0.711,0.221,1.135,0.221
			c0.558,0,1.031-0.104,1.422-0.313c0.39-0.209,0.691-0.513,0.901-0.914s0.328-0.893,0.353-1.476h-1.441
			c-0.018,0.392-0.069,0.696-0.154,0.912s-0.213,0.368-0.386,0.456c-0.172,0.088-0.404,0.132-0.696,0.132
			c-0.241,0-0.442-0.043-0.604-0.13c-0.162-0.086-0.29-0.218-0.386-0.397c-0.095-0.178-0.164-0.402-0.205-0.672
			s-0.062-0.586-0.062-0.949v-1.376C296.855,52.646,296.879,52.323,296.928,52.053z"/>
		<path class="st1" d="M303.239,56.369c-0.146-0.151-0.346-0.227-0.601-0.227s-0.456,0.075-0.602,0.227
			c-0.146,0.151-0.218,0.338-0.218,0.561c0,0.216,0.073,0.398,0.218,0.548s0.346,0.224,0.602,0.224c0.255,0,0.456-0.075,0.601-0.224
			s0.218-0.332,0.218-0.548C303.458,56.707,303.385,56.52,303.239,56.369z"/>
	</g>
</g>
</svg>
